<svg xmlns="http://www.w3.org/2000/svg" viewBox="0 0 24 24"><path fill="white" d="M 12 2.5 L 2 9.8007812 L 5.8007812 21.5 L 11.9375 21.5 A 7 7 0 0 1 11 18 A 7 7 0 0 1 18 11 A 7 7 0 0 1 21.335938 11.845703 L 22 9.8007812 L 12 2.5 z M 17 13 C 16.87 13 16.760234 13.090938 16.740234 13.210938 L 16.550781 14.529297 C 16.250781 14.659297 15.959219 14.82 15.699219 15 L 14.460938 14.5 C 14.350938 14.5 14.220391 14.500859 14.150391 14.630859 L 13.150391 16.359375 C 13.090391 16.469375 13.110938 16.599688 13.210938 16.679688 L 14.269531 17.5 C 14.249531 17.67 14.240234 17.83 14.240234 18 C 14.240234 18.17 14.249531 18.33 14.269531 18.5 L 13.210938 19.320312 C 13.120938 19.400312 13.090391 19.530625 13.150391 19.640625 L 14.150391 21.369141 C 14.210391 21.499141 14.340937 21.5 14.460938 21.5 L 15.699219 21 C 15.959219 21.18 16.240781 21.350703 16.550781 21.470703 L 16.740234 22.789062 C 16.760234 22.909063 16.86 23 17 23 L 19 23 C 19.11 23 19.220234 22.909062 19.240234 22.789062 L 19.429688 21.470703 C 19.729688 21.340703 19.999531 21.18 20.269531 21 L 21.5 21.5 C 21.63 21.5 21.760078 21.499141 21.830078 21.369141 L 22.830078 19.640625 C 22.890078 19.530625 22.859531 19.400313 22.769531 19.320312 L 21.699219 18.5 C 21.719219 18.33 21.740234 18.17 21.740234 18 C 21.740234 17.83 21.729219 17.67 21.699219 17.5 L 22.759766 16.679688 C 22.849766 16.599688 22.880313 16.469375 22.820312 16.359375 L 21.820312 14.630859 C 21.760313 14.500859 21.63 14.5 21.5 14.5 L 20.269531 15 C 19.999531 14.82 19.729922 14.649297 19.419922 14.529297 L 19.230469 13.210938 C 19.220469 13.090937 19.11 13 19 13 L 17 13 z M 18 16.5 C 18.83 16.5 19.5 17.17 19.5 18 C 19.5 18.83 18.83 19.5 18 19.5 C 17.16 19.5 16.5 18.83 16.5 18 C 16.5 17.17 17.17 16.5 18 16.5 z " /></svg>
