<svg xmlns="http://www.w3.org/2000/svg" viewBox="0 0 24 24"><path fill="white" d="M 7 2 C 7 2 11 4 11 12 C 11 12.298817 10.995105 12.588811 10.984375 12.871094 C 11.615709 12.952726 11.301093 12.999421 12 13 C 12.698907 12.999421 12.384296 12.95273 13.015625 12.871094 C 13.00488 12.588811 13 12.298817 13 12 C 13 4 17 2 17 2 L 7 2 z M 8.6386719 8.2324219 C 4.6574121 8.8007852 1.9996621 10.309111 2 12 C 2 14.209139 6.4771525 16 12 16 C 17.522847 16 22 14.209139 22 12 C 22.000338 10.309111 19.342588 8.8007851 15.361328 8.2324219 C 15.231151 8.8464493 15.130473 9.5266967 15.068359 10.28125 C 16.886195 10.641845 18.00006 11.294877 18 12 C 18 13.104569 15.313708 14 12 14 C 8.6862915 14 6 13.104569 6 12 C 5.9999404 11.294877 7.1138046 10.641845 8.9316406 10.28125 C 8.8695274 9.5266967 8.7688486 8.8464493 8.6386719 8.2324219 z M 10.394531 16.867188 C 9.2763663 20.861367 7 22 7 22 L 17 22 C 17 22 14.723633 20.861372 13.605469 16.867188 C 12.756152 16.955087 12.881706 16.999961 12 17 C 11.118294 16.999961 11.243849 16.955089 10.394531 16.867188 z " /></svg>
