<?xml version="1.0" encoding="UTF-8" standalone="no"?>
<!-- Created with Inkscape (http://www.inkscape.org/) -->

<svg
   width="40mm"
   height="16mm"
   viewBox="0 0 40 16"
   version="1.1"
   id="svg1"
   xml:space="preserve"
   sodipodi:docname="signature_hactar_thin.svg"
   inkscape:version="1.4.3 (0d15f75, 2025-12-25)"
   xmlns:inkscape="http://www.inkscape.org/namespaces/inkscape"
   xmlns:sodipodi="http://sodipodi.sourceforge.net/DTD/sodipodi-0.dtd"
   xmlns="http://www.w3.org/2000/svg"
   xmlns:svg="http://www.w3.org/2000/svg"><sodipodi:namedview
     id="namedview1"
     pagecolor="#505050"
     bordercolor="#eeeeee"
     borderopacity="1"
     inkscape:showpageshadow="0"
     inkscape:pageopacity="0"
     inkscape:pagecheckerboard="0"
     inkscape:deskcolor="#d1d1d1"
     inkscape:document-units="mm"
     inkscape:zoom="3.5770264"
     inkscape:cx="45.009453"
     inkscape:cy="16.633928"
     inkscape:window-width="1920"
     inkscape:window-height="1022"
     inkscape:window-x="0"
     inkscape:window-y="30"
     inkscape:window-maximized="1"
     inkscape:current-layer="layer1" /><defs
     id="defs1" /><g
     inkscape:label="Layer 1"
     inkscape:groupmode="layer"
     id="layer1"><path
       style="fill:#ffffff;fill-opacity:1"
       d="m 18.119209,14.56267 c -0.253917,-0.06479 -0.4948,-0.457971 -0.582306,-0.95046 -0.0453,-0.254935 -0.107133,-0.441345 -0.146401,-0.441345 -0.03739,0 -0.23048,0.144994 -0.429088,0.322209 -0.425043,0.379258 -0.577229,0.449996 -0.792247,0.368246 -0.08526,-0.03242 -0.309088,-0.06863 -0.497386,-0.08047 -0.513958,-0.03232 -0.735151,-0.306923 -0.736054,-0.913783 -3.96e-4,-0.266769 -0.0891,-0.278577 -0.220012,-0.02929 -0.121187,0.230767 -1.013525,1.134814 -1.320497,1.337823 -0.160586,0.106201 -0.332953,0.158002 -0.603882,0.181485 -0.332467,0.02882 -0.403715,0.01633 -0.578662,-0.101443 -0.367771,-0.247574 -0.497725,-0.795636 -0.365912,-1.54318 0.04253,-0.241188 0.07784,-0.449573 0.07846,-0.463077 0.0039,-0.08357 -0.294675,0.275065 -0.400886,0.481573 -0.137187,0.266735 -0.692139,0.791671 -1.061516,1.004101 -0.124516,0.07161 -0.303343,0.130199 -0.397393,0.130199 -0.2451884,0 -0.6984504,-0.11856 -0.8054684,-0.210687 -0.05025,-0.04325 -0.124026,-0.07864 -0.163956,-0.07864 -0.127088,0 -0.476944,-0.410581 -0.624509,-0.732905 -0.140446,-0.306783 -0.141652,-0.322832 -0.08158,-1.085185 0.03354,-0.425589 0.102839,-0.976481 0.154007,-1.224205 0.107092,-0.518463 0.439312,-1.5619704 0.609371,-1.9140423 0.172914,-0.3579817 0.233279,-0.5988185 0.150093,-0.5988185 -0.03783,0 -0.354104,0.1854193 -0.702824,0.4120429 C 8.2518396,8.6594416 7.8093856,8.9249495 7.6173286,9.0228355 7.4252726,9.1207215 7.229075,9.2321666 7.1813354,9.2704914 7.1335958,9.3088162 6.93241,9.4079335 6.7342559,9.4907522 6.5361018,9.5735708 6.2366443,9.7033439 6.0687948,9.7791368 5.9009453,9.8549297 5.6014292,9.9753239 5.4032034,10.04668 5.066435,10.167906 5.040504,10.190172 5.0078976,10.386118 c -0.081288,0.488498 -0.4819628,1.674711 -0.6767523,2.003553 -0.3495895,0.590176 -0.9111119,1.738855 -0.9111119,1.863817 0,0.13542 -0.1715614,0.306165 -0.307628,0.306165 -0.1239399,0 -0.3637023,-0.380553 -0.4226497,-0.670834 -0.1299426,-0.639889 0.037429,-1.840577 0.3768773,-2.703638 0.035238,-0.08959 0.064069,-0.221581 0.064069,-0.293304 0,-0.163404 0.8326328,-0.9654141 1.143916,-1.1018457 C 4.7680578,9.5737629 4.7770964,9.5651216 4.826119,9.2627739 4.8980117,8.8193745 5.2644752,7.3496048 5.4294532,6.8429904 5.5526675,6.4646239 5.5639656,6.3799962 5.4969316,6.3375474 5.4526484,6.3095054 5.3829508,6.2861632 5.3420481,6.2856758 5.2437216,6.2845043 5.0308607,6.1483496 4.5955057,5.8081566 4.2087625,5.5059495 3.8705137,5.0565197 3.6236911,4.5169103 3.4776977,4.1977362 3.4268577,4.0563177 3.2501433,3.4778352 3.2111794,3.3502851 3.1748754,3.0638475 3.1694677,2.8413072 c -0.00959,-0.394591 -0.00614,-0.405048 0.1391227,-0.4219467 0.1459688,-0.016981 0.1508682,-0.00567 0.2444004,0.5641292 0.1600179,0.9748342 0.7005079,2.1087725 1.1578206,2.4290868 0.065954,0.046196 0.1659868,0.1300631 0.2222949,0.1863712 0.1501909,0.1501909 0.5440094,0.338645 0.7076773,0.338645 0.1308056,0 0.1616878,-0.059014 0.3860891,-0.7377939 C 6.1610238,4.7940122 6.3041631,4.3969056 6.3449601,4.3173396 6.385757,4.2377736 6.5281493,3.9383161 6.6613872,3.6518785 6.9157622,3.1050181 7.0075851,2.9241968 7.3666286,2.2630901 c 0.120993,-0.2227848 0.258161,-0.4868535 0.304818,-0.5868194 0.118307,-0.2534799 0.336603,-0.318871 0.726693,-0.2176828 0.673935,0.1748164 0.930338,0.5157078 0.812275,1.0799311 -0.06995,0.3342932 -0.270408,0.8760377 -0.389967,1.0539023 -0.0422,0.062778 -0.07672,0.1555169 -0.07672,0.2060869 0,0.05057 -0.05208,0.1478463 -0.115733,0.2161695 -0.06365,0.068323 -0.115732,0.1620449 -0.115732,0.2082703 0,0.046225 -0.136709,0.3112976 -0.303797,0.5890492 C 7.7343156,5.600169 6.8093195,6.3444703 6.3058467,6.3429421 6.0939923,6.3422991 5.6885206,7.0370612 5.596814,7.5578457 5.5563234,7.7877836 5.2503335,9.1747991 5.1851144,9.4240301 c -0.036141,0.1381129 -0.024771,0.159132 0.086085,0.159132 0.07025,0 0.2097815,-0.036334 0.3100706,-0.080742 C 6.3743117,9.1512604 7.0129954,8.8470198 7.194652,8.7338764 7.3133685,8.6599344 7.4238366,8.599437 7.4401376,8.599437 c 0.0358,0 0.927778,-0.5627311 1.781737,-1.1240599 0.442243,-0.2906976 0.633433,-0.451337 0.659433,-0.5540594 0.02014,-0.079566 0.08089,-0.2097649 0.1350004,-0.2893309 0.05411,-0.079566 0.210124,-0.3731839 0.346695,-0.6524843 0.136571,-0.2793004 0.270779,-0.5217052 0.29824,-0.5386773 0.02746,-0.016972 0.04993,-0.067191 0.04993,-0.1115971 0,-0.044406 0.130199,-0.307004 0.289331,-0.5835503 0.159132,-0.2765464 0.289331,-0.5107894 0.289331,-0.5205402 0,-0.00975 0.07461,-0.129703 0.165809,-0.2665607 0.09119,-0.1368578 0.2132,-0.3529914 0.271123,-0.480297 0.309837,-0.6809714 1.236416,-1.8851875 1.529039,-1.9871966 0.150326,-0.052404 0.197008,-0.042639 0.325818,0.068159 0.145738,0.1253584 0.148483,0.1399176 0.08948,0.4744534 -0.262511,1.48825 -0.441648,2.0187517 -0.916856,2.7151908 -0.218143,0.3196972 -1.392312,1.536001 -2.013383,2.085632 -0.411909,0.3645273 -0.8001404,0.8428953 -0.9024384,1.1119587 -0.03332,0.087648 -0.09408,0.2378698 -0.13501,0.3338269 -0.598716,1.4035799 -0.908471,2.7472509 -0.87839,3.8103359 0.0149,0.526696 0.131672,0.764371 0.413806,0.842272 0.113076,0.03122 0.260433,0.126485 0.32746,0.211696 0.108295,0.137675 0.152177,0.152016 0.394034,0.128777 0.5037974,-0.04841 0.7102254,-0.255636 1.9755194,-1.983171 0.349658,-0.477396 0.769472,-1.024231 0.932922,-1.21519 0.457717,-0.5347526 1.253686,-1.3037793 1.411599,-1.3638174 0.161897,-0.061553 0.726096,-0.071518 0.995752,-0.017587 0.12886,0.025772 0.191912,0.077471 0.217157,0.1780569 0.04825,0.1922406 -0.0831,0.4221546 -0.241169,0.4221546 -0.152687,0 -1.437011,1.0064399 -1.852908,1.4520019 -0.722899,0.774463 -1.105409,1.551459 -1.164409,2.365281 -0.02813,0.388011 -0.01774,0.453358 0.09458,0.595013 0.101625,0.12816 0.173234,0.15909 0.367916,0.158916 0.301734,-2.7e-4 0.532489,-0.138198 0.824717,-0.492953 0.124927,-0.151658 0.307522,-0.356624 0.405766,-0.455481 0.159335,-0.160329 0.26407,-0.311045 0.748198,-1.076666 0.494961,-0.782754 0.65939,-1.113216 0.777401,-1.562387 0.07107,-0.270524 0.164379,-0.5830016 0.207341,-0.694394 0.04296,-0.1113924 0.09307,-0.2569519 0.111358,-0.3234655 0.01828,-0.066514 0.09896,-0.156104 0.17928,-0.1990898 0.134701,-0.07209 0.159607,-0.064585 0.320894,0.096702 l 0.174858,0.1748584 -0.139632,0.3157342 c -0.0768,0.1736538 -0.197684,0.5033007 -0.268636,0.7325487 -0.07095,0.229249 -0.15295,0.431617 -0.18222,0.449707 -0.02927,0.01809 -0.05322,0.09317 -0.05322,0.166852 0,0.07368 -0.06277,0.247912 -0.139483,0.387181 -0.172739,0.313593 -0.254546,0.869589 -0.211516,1.437561 l 0.03273,0.43208 0.229406,0.054 c 0.40362,0.095 0.690917,-0.02756 1.175935,-0.501684 0.505522,-0.494166 0.683158,-0.775179 0.821613,-1.299761 0.158151,-0.599204 0.203076,-0.681438 0.607545,-1.112094 0.207391,-0.220817 0.377074,-0.4256166 0.377074,-0.4551095 0,-0.029493 0.196049,-0.2496724 0.435664,-0.4892878 0.379498,-0.3794982 0.485197,-0.4512119 0.819872,-0.556262 0.211314,-0.066329 0.415248,-0.1205976 0.453186,-0.1205976 0.03794,0 0.164909,-0.0651 0.282156,-0.1446655 0.117247,-0.079566 0.278413,-0.1446654 0.358146,-0.1446654 0.219677,0 0.486419,0.1594776 0.486419,0.2908169 0,0.1313695 -0.193184,0.3457111 -0.311586,0.3457111 -0.08952,0 -1.279151,0.5962986 -1.420667,0.7121022 -0.04979,0.040745 -0.161991,0.1098293 -0.249331,0.1535195 -0.265405,0.1327651 -0.651377,0.5424841 -0.795889,0.8448561 -0.07515,0.157248 -0.197071,0.383054 -0.270928,0.50179 -0.07386,0.118737 -0.176184,0.327055 -0.227394,0.46293 -0.05121,0.135874 -0.129319,0.329099 -0.173576,0.429388 -0.04426,0.100289 -0.08047,0.222441 -0.08047,0.271449 0,0.04901 -0.02515,0.104649 -0.05589,0.123645 -0.09379,0.05796 -0.0024,0.957701 0.125081,1.230881 0.09425,0.202033 0.143176,0.245931 0.274105,0.245931 0.200432,0 0.67469,-0.163017 1.157008,-0.397698 0.204556,-0.09953 0.4039,-0.180964 0.442988,-0.180964 0.03909,0 0.180157,-0.09114 0.313485,-0.202532 0.133328,-0.111392 0.261992,-0.202531 0.285921,-0.202531 0.10284,0 0.897148,-0.875068 1.351289,-1.488677 0.08889,-0.120107 0.240472,-0.321934 0.336843,-0.448506 0.09637,-0.126572 0.319668,-0.491129 0.496215,-0.810127 0.176546,-0.318998 0.378487,-0.671135 0.448756,-0.7825274 0.123752,-0.1961734 0.370337,-1.2054529 0.424133,-1.7359854 0.01452,-0.1432188 0.04378,-0.2734178 0.06503,-0.289331 0.02124,-0.015913 0.09905,-0.2372513 0.172904,-0.4918625 0.07385,-0.2546112 0.171088,-0.5493471 0.216073,-0.6549687 0.04499,-0.1056216 0.0691,-0.2125688 0.0536,-0.2376605 -0.01551,-0.025091 -0.165667,-0.061191 -0.333689,-0.080222 -0.678364,-0.076836 -1.086688,-0.287482 -1.086688,-0.5606012 0,-0.1356781 0.04251,-0.2012136 0.188066,-0.2899519 0.219041,-0.1335366 0.296973,-0.1232319 0.321496,0.04251 0.03427,0.2316017 0.224098,0.3310526 0.67541,0.3538429 l 0.422476,0.021334 0.125295,-0.3348809 C 24.491114,5.1412 24.611176,4.85129 24.689004,4.6811401 24.766834,4.5109902 24.83051,4.3600325 24.83051,4.3456784 c 0,-0.034841 0.425523,-0.9462532 0.661633,-1.4171265 0.108404,-0.2161921 0.253075,-0.412708 0.340225,-0.4621511 0.139348,-0.079057 0.158655,-0.076715 0.238503,0.028933 0.120496,0.1594304 0.111924,0.2861197 -0.0488,0.7213214 -0.07665,0.2075467 -0.183427,0.5335964 -0.237283,0.7245548 -0.246548,0.874199 -0.281505,0.9872532 -0.322064,1.0415912 -0.02376,0.031826 -0.0615,0.155803 -0.08386,0.2755036 -0.02237,0.1197005 -0.06376,0.2319063 -0.09198,0.2493463 -0.02822,0.01744 -0.05131,0.084987 -0.05131,0.1501043 0,0.1037089 0.02692,0.1145758 0.216998,0.087604 0.585549,-0.083088 0.76427,-0.109437 1.084991,-0.1599612 0.381632,-0.06012 1.380529,-0.082766 1.720293,-0.039001 0.364015,0.046889 0.516286,0.2601077 0.26563,0.3719533 -0.07925,0.035364 -0.246061,0.03685 -0.448463,0.00399 -0.289553,-0.047004 -0.487158,-0.039742 -1.16133,0.042676 -0.111392,0.013618 -0.553738,0.066069 -0.982991,0.1165583 -0.429253,0.050489 -0.801389,0.1127281 -0.82697,0.1383088 -0.02558,0.025581 -0.106591,0.2184507 -0.180023,0.4286001 -0.07343,0.2101493 -0.176521,0.4477297 -0.229088,0.5279563 -0.05257,0.080227 -0.09557,0.1939889 -0.09557,0.252805 0,0.058816 -0.0611,0.2355008 -0.135785,0.3926327 -0.07468,0.1571318 -0.209681,0.4809925 -0.299998,0.7196905 -0.09032,0.238698 -0.193587,0.4730561 -0.229488,0.5207957 -0.118983,0.1582162 -0.354158,0.7915513 -0.328861,0.8856333 0.0069,0.025616 -0.02701,0.1030188 -0.07534,0.1720068 -0.04832,0.06899 -0.08786,0.186457 -0.08786,0.261042 0,0.152223 -0.183789,0.975594 -0.364397,1.632492 -0.145354,0.528672 -0.196515,1.29966 -0.09441,1.422692 0.112475,0.135524 0.570275,0.05905 0.71726,-0.119815 0.06472,-0.07876 0.263511,-0.206777 0.441755,-0.284485 0.269261,-0.117389 0.361071,-0.198341 0.54276,-0.478574 0.120273,-0.185507 0.286914,-0.436473 0.370314,-0.557701 0.166442,-0.241938 0.347896,-0.556334 0.567638,-0.983518 0.155318,-0.301942 0.980795,-1.164707 1.172621,-1.2255904 0.06513,-0.020673 0.118428,-0.061872 0.118428,-0.091554 0,-0.029682 0.04721,-0.053967 0.104906,-0.053967 0.0577,0 0.179749,-0.078119 0.271224,-0.1735985 0.09148,-0.095479 0.18584,-0.1735986 0.2097,-0.1735986 0.04112,0 0.630254,-0.3902529 1.00549,-0.6660527 0.380451,-0.2796326 1.008501,-0.464843 1.096031,-0.3232168 0.02155,0.034876 0.08973,0.063411 0.151507,0.063411 0.08906,0 0.112317,0.040563 0.112317,0.1958764 0,0.1450806 0.03752,0.2204576 0.144666,0.2906649 0.201282,0.1318852 0.187095,0.3469711 -0.05787,0.8772953 -0.111393,0.2411568 -0.202532,0.4828504 -0.202532,0.5370974 0,0.05425 -0.03663,0.150924 -0.08139,0.214837 -0.04477,0.06391 -0.09985,0.239286 -0.122409,0.389717 -0.02256,0.150432 -0.06405,0.287748 -0.0922,0.305148 -0.02815,0.0174 -0.05119,0.119969 -0.05119,0.22793 0,0.107961 -0.03841,0.343759 -0.08536,0.523995 -0.08051,0.309103 -0.08189,0.75539 -0.0031,1.003614 0.03535,0.111378 0.301005,0.236718 0.501719,0.236718 0.05866,0 0.171461,-0.07274 0.250674,-0.161642 0.140959,-0.158202 0.230271,-0.311441 0.668771,-1.147459 0.118905,-0.226696 0.282307,-0.526153 0.363117,-0.665461 0.08081,-0.139307 0.269045,-0.539724 0.418302,-0.889814 0.149263,-0.350088 0.307522,-0.7185803 0.351692,-0.8188694 0.04417,-0.1002891 0.08031,-0.2046944 0.08031,-0.2320118 0,-0.072397 0.233488,-0.2152442 0.433996,-0.2655165 0.09548,-0.023939 0.446551,-0.04819 0.78016,-0.053891 0.368875,-0.0063 0.663654,-0.040163 0.75226,-0.086408 0.196316,-0.1024593 0.312423,-0.096206 0.455086,0.024511 0.185916,0.1573164 0.217419,0.3884924 0.06727,0.4936586 -0.06846,0.047951 -0.213548,0.2266572 -0.322417,0.3971244 -0.10887,0.1704671 -0.230712,0.3565657 -0.270759,0.4135537 -0.04005,0.05699 -0.06523,0.109067 -0.05596,0.115732 0.0093,0.0067 -0.07645,0.20384 -0.190493,0.438167 -0.11404,0.234326 -0.274814,0.624923 -0.357276,0.867993 -0.08246,0.243069 -0.172509,0.466682 -0.200104,0.496917 -0.02759,0.03024 -0.05017,0.102128 -0.05017,0.159763 0,0.05763 -0.04961,0.215175 -0.110239,0.35009 -0.198392,0.441458 -0.200612,0.544353 -0.01375,0.63757 0.134045,0.06687 0.191652,0.06898 0.303832,0.01111 0.07613,-0.03927 0.229565,-0.09084 0.340957,-0.114587 0.111392,-0.02375 0.253895,-0.07891 0.316673,-0.122585 0.06278,-0.04367 0.169107,-0.07941 0.236287,-0.07941 0.06718,0 0.13681,-0.01466 0.154734,-0.03259 0.01792,-0.01792 0.315212,-0.131854 0.660639,-0.253178 0.91971,-0.32303 1.786331,-0.733413 2.232751,-1.057308 0.08204,-0.05952 0.116502,-0.05636 0.19032,0.01745 0.08161,0.08161 0.07494,0.105342 -0.07049,0.250768 -0.08834,0.08835 -0.265128,0.213588 -0.392851,0.278316 -0.127723,0.06473 -0.245243,0.133721 -0.261156,0.153315 -0.086,0.105894 -0.7398,0.444647 -1.186257,0.614634 -1.701777,0.647946 -2.126295,0.780848 -2.494207,0.780848 -0.216636,0 -0.339683,-0.03382 -0.456006,-0.125314 C 32.29255,13.449652 32.284054,13.42 32.317479,13.135603 c 0.05529,-0.470411 0.641468,-2.186788 1.041412,-3.049326 0.115186,-0.2484176 0.20943,-0.4735305 0.20943,-0.5002508 0,-0.052904 -0.381598,-0.118706 -0.676675,-0.1166838 -0.101647,6.966e-4 -0.27821,0.040291 -0.392364,0.087987 -0.172293,0.071989 -0.241656,0.1585721 -0.408316,0.5096846 -0.11042,0.232631 -0.200764,0.44201 -0.200764,0.465287 0,0.04596 -0.952546,2.03352 -1.042678,2.175626 -0.03028,0.04774 -0.09153,0.164919 -0.136107,0.260398 -0.04458,0.09548 -0.202287,0.29075 -0.35046,0.433934 -0.239749,0.231676 -0.29652,0.259286 -0.515695,0.250803 -0.265951,-0.01029 -0.848369,-0.236403 -0.848369,-0.32936 0,-0.03131 -0.03968,-0.10078 -0.08818,-0.154372 -0.106372,-0.11754 -0.122101,-0.741002 -0.03049,-1.208562 0.09579,-0.488868 -0.03403,-0.471916 -0.182505,0.02383 -0.03813,0.127306 -0.0854,0.244485 -0.105062,0.260398 -0.01966,0.01591 -0.09458,0.152057 -0.166503,0.302542 -0.07493,0.156784 -0.233826,0.351895 -0.37214,0.456958 -0.132758,0.100842 -0.358556,0.305051 -0.501775,0.453798 -0.143219,0.148746 -0.377577,0.337697 -0.520796,0.41989 -0.3044,0.174694 -0.408645,0.153224 -0.707612,-0.145743 -0.270273,-0.270273 -0.360036,-0.616136 -0.3155,-1.215646 0.04804,-0.646656 0.263763,-1.221726 0.696862,-1.857662 0.190396,-0.279566 0.140929,-0.360336 -0.06913,-0.112874 -0.405553,0.477768 -0.53933,0.683386 -0.916976,1.409406 -0.585574,1.12576 -0.633772,1.195146 -0.994221,1.431274 -0.179484,0.117579 -0.368449,0.260279 -0.419922,0.317112 -0.05147,0.05683 -0.125833,0.103332 -0.165245,0.103332 -0.03941,0 -0.149025,0.0651 -0.243584,0.144665 -0.183435,0.154351 -0.358787,0.174472 -0.791692,0.09084 -0.379513,-0.07331 -0.524475,-0.25373 -0.600975,-0.747965 -0.06977,-0.450755 -0.01086,-0.814895 0.281595,-1.740497 0.07475,-0.236592 0.121561,-0.444521 0.104017,-0.462065 -0.03668,-0.03669 -0.252228,0.227601 -0.254161,0.311638 -0.0027,0.117371 -0.766213,1.183632 -1.145502,1.599715 -0.21819,0.239357 -0.434088,0.487157 -0.479773,0.550665 -0.09017,0.125346 -0.467373,0.317265 -0.835325,0.425008 -0.215738,0.06317 -0.604395,0.226083 -0.864035,0.362173 -0.166279,0.08716 -0.434815,0.159358 -0.725387,0.195041 -0.142176,0.01746 -0.272375,0.0387 -0.289331,0.04721 -0.01696,0.0085 -0.09541,-0.001 -0.174332,-0.02115 z m 8.924819,-1.358338 c 0.151107,-0.140725 0.27474,-0.278022 0.27474,-0.305105 0,-0.02708 0.09299,-0.09932 0.206638,-0.160523 0.11365,-0.06121 0.279943,-0.203838 0.369539,-0.316962 0.140271,-0.177107 0.440088,-0.755864 0.586172,-1.131528 0.02475,-0.06365 0.153033,-0.35009 0.285067,-0.636528 0.293047,-0.635743 0.466141,-1.0856443 0.477937,-1.242244 0.0049,-0.064686 0.02936,-0.1176108 0.05441,-0.1176108 0.09711,0 0.272806,-0.2329708 0.240057,-0.3183141 -0.06299,-0.1641574 -0.532378,-0.019346 -0.984874,0.3038476 -0.100259,0.071609 -0.205397,0.1301989 -0.233641,0.1301989 -0.07006,0 -0.489965,0.4457688 -0.65411,0.6943934 -0.07354,0.111393 -0.23103,0.306691 -0.349974,0.433997 -0.118944,0.127305 -0.235494,0.296564 -0.259,0.37613 -0.02351,0.07957 -0.09005,0.211892 -0.147884,0.294058 -0.144172,0.204842 -0.334632,0.701477 -0.358594,0.935057 -0.01088,0.106069 -0.03777,0.221956 -0.05975,0.257526 -0.04839,0.07829 -0.01265,0.905392 0.04302,0.995458 0.07595,0.12289 0.237522,0.06214 0.510252,-0.191851 z M 3.5341968,12.953867 c 0.074073,-0.151176 0.2088873,-0.386839 0.299588,-0.523697 0.090701,-0.136858 0.1649104,-0.272397 0.1649104,-0.301199 0,-0.0288 0.075967,-0.216285 0.1688152,-0.416629 0.1930336,-0.416519 0.3776131,-0.9588 0.434202,-1.275654 0.056192,-0.314631 -0.071217,-0.284495 -0.4577585,0.108271 -0.4222744,0.429076 -0.6464323,0.769488 -0.686743,1.042908 -0.018094,0.122728 -0.062885,0.340322 -0.099535,0.48354 -0.088159,0.344501 -0.1023683,1.157309 -0.020232,1.157317 0.034142,4e-6 0.1226805,-0.123682 0.1967529,-0.274857 z M 24.533925,6.611257 c 0.02892,-0.099991 0.07258,-0.2309245 0.09701,-0.2909635 0.03213,-0.078941 0.02273,-0.101927 -0.03397,-0.083029 -0.04312,0.014373 -0.09732,0.089536 -0.12044,0.1670279 -0.02312,0.077492 -0.06893,0.2277287 -0.101787,0.333859 -0.05118,0.1652988 -0.04782,0.1830676 0.02343,0.1239356 0.04575,-0.037966 0.106836,-0.1508394 0.135755,-0.2508303 z M 11.30042,5.7095324 c 0.991416,-1.0021261 1.495353,-1.8062736 1.68837,-2.6941819 0.04843,-0.2227848 0.107055,-0.4690219 0.130278,-0.5471934 l 0.04222,-0.1421301 -0.19738,0.1249725 c -0.10856,0.068735 -0.238241,0.2011611 -0.288182,0.2942804 -0.04994,0.093119 -0.164885,0.257079 -0.255432,0.3643547 -0.09055,0.1072757 -0.207118,0.286186 -0.259046,0.3975784 -0.05193,0.1113924 -0.18461,0.3550312 -0.29485,0.5414195 -0.339982,0.5748258 -0.626219,1.0882997 -0.866809,1.5549451 -0.371394,0.7203539 -0.323643,0.7371724 0.300828,0.1059548 z m -4.4662818,0.021836 c 0.3221044,-0.2051535 1.0207074,-0.9916741 1.1548214,-1.300153 0.03415,-0.078545 0.113493,-0.2209278 0.176323,-0.316407 0.06283,-0.095479 0.130845,-0.2126582 0.151145,-0.2603978 0.0203,-0.04774 0.096,-0.2169982 0.168234,-0.3761302 0.256524,-0.5651682 0.308041,-0.718856 0.347902,-1.0378937 0.04598,-0.3679789 -0.01793,-0.4955601 -0.248228,-0.4955601 -0.162052,0 -0.500962,0.1878513 -0.683674,0.3789468 -0.06585,0.068875 -0.143973,0.1354775 -0.173599,0.1480049 -0.02963,0.012527 -0.180364,0.2831748 -0.334975,0.6014388 C 7.2374767,3.3914806 7.089405,3.6909381 7.0630394,3.7386777 6.7820558,4.247447 6.3351833,5.4109691 6.2725662,5.7968331 L 6.2404613,5.9946728 6.4360339,5.9275182 C 6.5435989,5.8905832 6.7227458,5.8023156 6.8341382,5.7313684 Z M 24.884103,5.624492 c 0.03726,-0.0449 0.08358,-0.1791471 0.102916,-0.2983276 0.04757,-0.2931571 -0.0609,-0.2196327 -0.176501,0.1196332 -0.08806,0.2584304 -0.0564,0.3353127 0.07358,0.1786944 z M 3.2078962,2.1473577 c 0.01023,-0.031826 0.1269982,-0.065861 0.2594845,-0.075633 0.1913629,-0.014114 0.2342511,-4.812e-4 0.208619,0.066315 -0.036928,0.096234 -0.4989981,0.1054318 -0.4681035,0.00932 z"
       id="path1"
       sodipodi:nodetypes="cssssssssscscssscscssssssssssssssssssssssssscsssssssssssssssssssssssssssssssscssscsssssssssssssssscsssscscssccsssccccssssssssssssssssssscsssssssssscsscssssscssssssssscssssssssssssssssccsssssssssssssssssssscssscssssssssssssssscsscssssssssssscsssssssssssssssssssssssssssssssssscsscssssssccccssssscssssssscsccccssssssssssscssssssssccsssssssssssssssssssscssscssssssss" /></g></svg>
