<svg xmlns="http://www.w3.org/2000/svg" viewBox="3 2.5 18 18"><path fill="white" d="M 7 7 C 5.895431 7 5 7.895431 5 9 L 5 10 L 7 10 L 7 9 L 9 9 L 9 11 C 7.895431 11 7 11.895431 7 13 L 7 14 L 9 14 L 9 13 C 10.104569 13 11 12.104569 11 11 L 11 9 C 11 7.8954305 10.104569 7 9 7 L 7 7 z M 13 7 L 13 17 L 16 17 C 17.656854 17 19 15.656854 19 14 L 19 10 C 19 8.3431458 17.656854 7 16 7 L 13 7 z M 15 9 L 16 9 C 16.552285 9 17 9.4477153 17 10 L 17 14 C 17 14.552285 16.552285 15 16 15 L 15 15 L 15 9 z M 7 15 L 7 17 L 9 17 L 9 15 L 7 15 z " /></svg>
